<mxfile host="Electron" modified="2024-04-27T12:07:48.728Z" agent="Mozilla/5.0 (Windows NT 10.0; Win64; x64) AppleWebKit/537.36 (KHTML, like Gecko) draw.io/24.0.4 Chrome/120.0.6099.109 Electron/28.1.0 Safari/537.36" etag="06t7O9eHzFz_9bzWrC1p" version="24.0.4" type="device">
  <diagram name="Page-1" id="2YBvvXClWsGukQMizWep">
    <mxGraphModel dx="918" dy="593" grid="1" gridSize="10" guides="1" tooltips="1" connect="1" arrows="1" fold="1" page="1" pageScale="1" pageWidth="850" pageHeight="1100" math="0" shadow="0">
      <root>
        <mxCell id="0" />
        <mxCell id="1" parent="0" />
        <mxCell id="aM9ryv3xv72pqoxQDRHE-1" value="&lt;b&gt;&lt;span style=&quot;line-height: 107%;&quot;&gt;&lt;font style=&quot;font-size: 11px;&quot;&gt;Online Alışveriş Sistemi&lt;/font&gt;&lt;/span&gt;&lt;/b&gt;" style="shape=umlLifeline;perimeter=lifelinePerimeter;whiteSpace=wrap;html=1;container=0;dropTarget=0;collapsible=0;recursiveResize=0;outlineConnect=0;portConstraint=eastwest;newEdgeStyle={&quot;edgeStyle&quot;:&quot;elbowEdgeStyle&quot;,&quot;elbow&quot;:&quot;vertical&quot;,&quot;curved&quot;:0,&quot;rounded&quot;:0};" parent="1" vertex="1">
          <mxGeometry x="163" y="80" width="100" height="300" as="geometry" />
        </mxCell>
        <mxCell id="aM9ryv3xv72pqoxQDRHE-2" value="" style="html=1;points=[];perimeter=orthogonalPerimeter;outlineConnect=0;targetShapes=umlLifeline;portConstraint=eastwest;newEdgeStyle={&quot;edgeStyle&quot;:&quot;elbowEdgeStyle&quot;,&quot;elbow&quot;:&quot;vertical&quot;,&quot;curved&quot;:0,&quot;rounded&quot;:0};" parent="aM9ryv3xv72pqoxQDRHE-1" vertex="1">
          <mxGeometry x="45" y="70" width="10" height="190" as="geometry" />
        </mxCell>
        <mxCell id="aM9ryv3xv72pqoxQDRHE-5" value="&lt;b&gt;&lt;span style=&quot;line-height: 12.84px;&quot;&gt;Envanter Sistemi&lt;/span&gt;&lt;/b&gt;" style="shape=umlLifeline;perimeter=lifelinePerimeter;whiteSpace=wrap;html=1;container=0;dropTarget=0;collapsible=0;recursiveResize=0;outlineConnect=0;portConstraint=eastwest;newEdgeStyle={&quot;edgeStyle&quot;:&quot;elbowEdgeStyle&quot;,&quot;elbow&quot;:&quot;vertical&quot;,&quot;curved&quot;:0,&quot;rounded&quot;:0};" parent="1" vertex="1">
          <mxGeometry x="380" y="80" width="105" height="400" as="geometry" />
        </mxCell>
        <mxCell id="bWho9EhT9x6A9DE35EJu-11" value="" style="html=1;points=[[0,0,0,0,5],[0,1,0,0,-5],[1,0,0,0,5],[1,1,0,0,-5]];perimeter=orthogonalPerimeter;outlineConnect=0;targetShapes=umlLifeline;portConstraint=eastwest;newEdgeStyle={&quot;curved&quot;:0,&quot;rounded&quot;:0};" vertex="1" parent="aM9ryv3xv72pqoxQDRHE-5">
          <mxGeometry x="45" y="83" width="10" height="47" as="geometry" />
        </mxCell>
        <mxCell id="bWho9EhT9x6A9DE35EJu-27" value="" style="html=1;points=[[0,0,0,0,5],[0,1,0,0,-5],[1,0,0,0,5],[1,1,0,0,-5]];perimeter=orthogonalPerimeter;outlineConnect=0;targetShapes=umlLifeline;portConstraint=eastwest;newEdgeStyle={&quot;curved&quot;:0,&quot;rounded&quot;:0};" vertex="1" parent="aM9ryv3xv72pqoxQDRHE-5">
          <mxGeometry x="47.5" y="274" width="10" height="40" as="geometry" />
        </mxCell>
        <mxCell id="2NSwki0RuKQBfY8C86ou-9" value="&lt;b&gt;&lt;span style=&quot;font-size:11.0pt;line-height:107%;&lt;br/&gt;font-family:&amp;quot;Calibri&amp;quot;,sans-serif;mso-ascii-theme-font:minor-latin;mso-fareast-font-family:&lt;br/&gt;Calibri;mso-fareast-theme-font:minor-latin;mso-hansi-theme-font:minor-latin;&lt;br/&gt;mso-bidi-font-family:Arial;mso-bidi-theme-font:minor-bidi;mso-ansi-language:&lt;br/&gt;TR;mso-fareast-language:EN-US;mso-bidi-language:AR-SA&quot;&gt;Kullanıcı&lt;/span&gt;&lt;/b&gt;" style="shape=umlLifeline;perimeter=lifelinePerimeter;whiteSpace=wrap;html=1;container=1;dropTarget=0;collapsible=0;recursiveResize=0;outlineConnect=0;portConstraint=eastwest;newEdgeStyle={&quot;curved&quot;:0,&quot;rounded&quot;:0};" parent="1" vertex="1">
          <mxGeometry x="20" y="80" width="100" height="300" as="geometry" />
        </mxCell>
        <mxCell id="2NSwki0RuKQBfY8C86ou-4" value="" style="html=1;points=[];perimeter=orthogonalPerimeter;outlineConnect=0;targetShapes=umlLifeline;portConstraint=eastwest;newEdgeStyle={&quot;edgeStyle&quot;:&quot;elbowEdgeStyle&quot;,&quot;elbow&quot;:&quot;vertical&quot;,&quot;curved&quot;:0,&quot;rounded&quot;:0};" parent="2NSwki0RuKQBfY8C86ou-9" vertex="1">
          <mxGeometry x="45" y="65" width="10" height="190" as="geometry" />
        </mxCell>
        <mxCell id="2NSwki0RuKQBfY8C86ou-12" value="&lt;span style=&quot;line-height: 107%; font-size: 13px;&quot;&gt;Bir ürün sec&lt;/span&gt;" style="html=1;verticalAlign=bottom;endArrow=block;curved=0;rounded=0;" parent="1" edge="1">
          <mxGeometry width="80" relative="1" as="geometry">
            <mxPoint x="69.63043478260875" y="160" as="sourcePoint" />
            <mxPoint x="208" y="160" as="targetPoint" />
          </mxGeometry>
        </mxCell>
        <mxCell id="2NSwki0RuKQBfY8C86ou-13" value="&lt;h1&gt;Soru2&lt;/h1&gt;" style="html=1;whiteSpace=wrap;fillColor=#f8cecc;strokeColor=#b85450;" parent="1" vertex="1">
          <mxGeometry x="10" y="20" width="80" height="30" as="geometry" />
        </mxCell>
        <mxCell id="bWho9EhT9x6A9DE35EJu-1" value="&lt;b&gt;&lt;span style=&quot;line-height: 107%;&quot;&gt;&lt;font style=&quot;font-size: 11px;&quot;&gt;Online Alışveriş Sistemi&lt;/font&gt;&lt;/span&gt;&lt;/b&gt;" style="shape=umlLifeline;perimeter=lifelinePerimeter;whiteSpace=wrap;html=1;container=0;dropTarget=0;collapsible=0;recursiveResize=0;outlineConnect=0;portConstraint=eastwest;newEdgeStyle={&quot;edgeStyle&quot;:&quot;elbowEdgeStyle&quot;,&quot;elbow&quot;:&quot;vertical&quot;,&quot;curved&quot;:0,&quot;rounded&quot;:0};" vertex="1" parent="1">
          <mxGeometry x="163" y="80" width="100" height="400" as="geometry" />
        </mxCell>
        <mxCell id="bWho9EhT9x6A9DE35EJu-2" value="" style="html=1;points=[];perimeter=orthogonalPerimeter;outlineConnect=0;targetShapes=umlLifeline;portConstraint=eastwest;newEdgeStyle={&quot;edgeStyle&quot;:&quot;elbowEdgeStyle&quot;,&quot;elbow&quot;:&quot;vertical&quot;,&quot;curved&quot;:0,&quot;rounded&quot;:0};" vertex="1" parent="bWho9EhT9x6A9DE35EJu-1">
          <mxGeometry x="45" y="70" width="10" height="190" as="geometry" />
        </mxCell>
        <mxCell id="bWho9EhT9x6A9DE35EJu-30" value="" style="html=1;points=[[0,0,0,0,5],[0,1,0,0,-5],[1,0,0,0,5],[1,1,0,0,-5]];perimeter=orthogonalPerimeter;outlineConnect=0;targetShapes=umlLifeline;portConstraint=eastwest;newEdgeStyle={&quot;curved&quot;:0,&quot;rounded&quot;:0};" vertex="1" parent="bWho9EhT9x6A9DE35EJu-1">
          <mxGeometry x="45" y="250" width="10" height="59" as="geometry" />
        </mxCell>
        <mxCell id="bWho9EhT9x6A9DE35EJu-4" value="&lt;span style=&quot;line-height: 107%; font-family: Calibri, sans-serif;&quot;&gt;&lt;font style=&quot;font-size: 12px;&quot;&gt;ürün envanter sisteminde mevcut mu&lt;/font&gt;&lt;/span&gt;" style="html=1;verticalAlign=bottom;endArrow=block;edgeStyle=elbowEdgeStyle;elbow=vertical;curved=0;rounded=0;" edge="1" parent="1" target="bWho9EhT9x6A9DE35EJu-11">
          <mxGeometry relative="1" as="geometry">
            <mxPoint x="218" y="170" as="sourcePoint" />
            <Array as="points">
              <mxPoint x="220" y="170" />
            </Array>
            <mxPoint x="395.9999999999998" y="170" as="targetPoint" />
          </mxGeometry>
        </mxCell>
        <mxCell id="bWho9EhT9x6A9DE35EJu-5" value="Ürün mevcut" style="html=1;verticalAlign=bottom;endArrow=open;dashed=1;endSize=8;edgeStyle=elbowEdgeStyle;elbow=vertical;curved=0;rounded=0;" edge="1" parent="1" source="aM9ryv3xv72pqoxQDRHE-5">
          <mxGeometry relative="1" as="geometry">
            <mxPoint x="218" y="189" as="targetPoint" />
            <Array as="points">
              <mxPoint x="230" y="189" />
            </Array>
            <mxPoint x="395.9999999999998" y="189" as="sourcePoint" />
          </mxGeometry>
        </mxCell>
        <mxCell id="bWho9EhT9x6A9DE35EJu-6" value="&lt;b&gt;&lt;span style=&quot;font-size:11.0pt;line-height:107%;&lt;br/&gt;font-family:&amp;quot;Calibri&amp;quot;,sans-serif;mso-ascii-theme-font:minor-latin;mso-fareast-font-family:&lt;br/&gt;Calibri;mso-fareast-theme-font:minor-latin;mso-hansi-theme-font:minor-latin;&lt;br/&gt;mso-bidi-font-family:Arial;mso-bidi-theme-font:minor-bidi;mso-ansi-language:&lt;br/&gt;TR;mso-fareast-language:EN-US;mso-bidi-language:AR-SA&quot;&gt;Kullanıcı&lt;/span&gt;&lt;/b&gt;" style="shape=umlLifeline;perimeter=lifelinePerimeter;whiteSpace=wrap;html=1;container=1;dropTarget=0;collapsible=0;recursiveResize=0;outlineConnect=0;portConstraint=eastwest;newEdgeStyle={&quot;curved&quot;:0,&quot;rounded&quot;:0};" vertex="1" parent="1">
          <mxGeometry x="20" y="80" width="100" height="380" as="geometry" />
        </mxCell>
        <mxCell id="bWho9EhT9x6A9DE35EJu-7" value="" style="html=1;points=[];perimeter=orthogonalPerimeter;outlineConnect=0;targetShapes=umlLifeline;portConstraint=eastwest;newEdgeStyle={&quot;edgeStyle&quot;:&quot;elbowEdgeStyle&quot;,&quot;elbow&quot;:&quot;vertical&quot;,&quot;curved&quot;:0,&quot;rounded&quot;:0};" vertex="1" parent="bWho9EhT9x6A9DE35EJu-6">
          <mxGeometry x="45" y="65" width="10" height="275" as="geometry" />
        </mxCell>
        <mxCell id="bWho9EhT9x6A9DE35EJu-8" value="" style="html=1;verticalAlign=bottom;endArrow=block;curved=0;rounded=0;" edge="1" parent="1">
          <mxGeometry x="0.0033" width="80" relative="1" as="geometry">
            <mxPoint x="69.63043478260875" y="160" as="sourcePoint" />
            <mxPoint x="208" y="160" as="targetPoint" />
            <mxPoint as="offset" />
          </mxGeometry>
        </mxCell>
        <mxCell id="bWho9EhT9x6A9DE35EJu-13" value="&lt;b&gt;&lt;span style=&quot;line-height: 107%; font-family: Calibri, sans-serif;&quot;&gt;Ödeme Ağ Geçidi&lt;/span&gt;&lt;/b&gt;" style="shape=umlLifeline;perimeter=lifelinePerimeter;whiteSpace=wrap;html=1;container=1;dropTarget=0;collapsible=0;recursiveResize=0;outlineConnect=0;portConstraint=eastwest;newEdgeStyle={&quot;curved&quot;:0,&quot;rounded&quot;:0};" vertex="1" parent="1">
          <mxGeometry x="510" y="80" width="100" height="335" as="geometry" />
        </mxCell>
        <mxCell id="bWho9EhT9x6A9DE35EJu-18" value="" style="html=1;points=[[0,0,0,0,5],[0,1,0,0,-5],[1,0,0,0,5],[1,1,0,0,-5]];perimeter=orthogonalPerimeter;outlineConnect=0;targetShapes=umlLifeline;portConstraint=eastwest;newEdgeStyle={&quot;curved&quot;:0,&quot;rounded&quot;:0};" vertex="1" parent="bWho9EhT9x6A9DE35EJu-13">
          <mxGeometry x="45" y="120" width="10" height="100" as="geometry" />
        </mxCell>
        <mxCell id="bWho9EhT9x6A9DE35EJu-19" value="" style="html=1;points=[[0,0,0,0,5],[0,1,0,0,-5],[1,0,0,0,5],[1,1,0,0,-5]];perimeter=orthogonalPerimeter;outlineConnect=0;targetShapes=umlLifeline;portConstraint=eastwest;newEdgeStyle={&quot;curved&quot;:0,&quot;rounded&quot;:0};" vertex="1" parent="bWho9EhT9x6A9DE35EJu-13">
          <mxGeometry x="45" y="220" width="10" height="90" as="geometry" />
        </mxCell>
        <mxCell id="bWho9EhT9x6A9DE35EJu-14" value="&lt;span style=&quot;line-height: 107%; font-family: Calibri, sans-serif;&quot;&gt;Seçilen ürünü sepete ekle&lt;/span&gt;" style="html=1;verticalAlign=bottom;endArrow=block;curved=0;rounded=0;" edge="1" parent="1">
          <mxGeometry width="80" relative="1" as="geometry">
            <mxPoint x="69.32352941176464" y="215" as="sourcePoint" />
            <mxPoint x="208" y="215" as="targetPoint" />
          </mxGeometry>
        </mxCell>
        <mxCell id="bWho9EhT9x6A9DE35EJu-15" value="&lt;b&gt;&lt;span style=&quot;line-height: 107%; font-family: Calibri, sans-serif;&quot;&gt;Nakliye Sistemi&lt;/span&gt;&lt;/b&gt;" style="shape=umlLifeline;perimeter=lifelinePerimeter;whiteSpace=wrap;html=1;container=1;dropTarget=0;collapsible=0;recursiveResize=0;outlineConnect=0;portConstraint=eastwest;newEdgeStyle={&quot;curved&quot;:0,&quot;rounded&quot;:0};" vertex="1" parent="1">
          <mxGeometry x="640" y="80" width="100" height="360" as="geometry" />
        </mxCell>
        <mxCell id="bWho9EhT9x6A9DE35EJu-22" value="" style="html=1;points=[[0,0,0,0,5],[0,1,0,0,-5],[1,0,0,0,5],[1,1,0,0,-5]];perimeter=orthogonalPerimeter;outlineConnect=0;targetShapes=umlLifeline;portConstraint=eastwest;newEdgeStyle={&quot;curved&quot;:0,&quot;rounded&quot;:0};" vertex="1" parent="bWho9EhT9x6A9DE35EJu-15">
          <mxGeometry x="50" y="270" width="10" height="90" as="geometry" />
        </mxCell>
        <mxCell id="bWho9EhT9x6A9DE35EJu-37" style="edgeStyle=orthogonalEdgeStyle;rounded=0;orthogonalLoop=1;jettySize=auto;html=1;curved=0;" edge="1" parent="bWho9EhT9x6A9DE35EJu-15" source="bWho9EhT9x6A9DE35EJu-22" target="bWho9EhT9x6A9DE35EJu-22">
          <mxGeometry relative="1" as="geometry">
            <mxPoint x="90" y="410" as="sourcePoint" />
            <mxPoint x="90" y="450" as="targetPoint" />
          </mxGeometry>
        </mxCell>
        <mxCell id="bWho9EhT9x6A9DE35EJu-38" value="&lt;span style=&quot;line-height: 107%; font-family: Calibri, sans-serif;&quot;&gt;&lt;font style=&quot;font-size: 11px;&quot;&gt;Ürün sevkiyatını onayla&lt;/font&gt;&lt;/span&gt;" style="edgeLabel;html=1;align=center;verticalAlign=middle;resizable=0;points=[];" vertex="1" connectable="0" parent="bWho9EhT9x6A9DE35EJu-37">
          <mxGeometry x="-0.3433" y="-1" relative="1" as="geometry">
            <mxPoint x="61" y="10" as="offset" />
          </mxGeometry>
        </mxCell>
        <mxCell id="bWho9EhT9x6A9DE35EJu-16" value="&lt;span style=&quot;font-size: 12px; line-height: 107%; font-family: Calibri, sans-serif;&quot;&gt;Ödeme ağ geçidi üzerinden ödemeyi işle&lt;/span&gt;" style="html=1;verticalAlign=bottom;endArrow=block;curved=0;rounded=0;" edge="1" parent="1">
          <mxGeometry x="0.003" width="80" relative="1" as="geometry">
            <mxPoint x="212.32352941176464" y="249" as="sourcePoint" />
            <mxPoint x="559.5" y="249" as="targetPoint" />
            <mxPoint as="offset" />
          </mxGeometry>
        </mxCell>
        <mxCell id="bWho9EhT9x6A9DE35EJu-17" value="&lt;span style=&quot;font-size: 12px; line-height: 107%; font-family: Calibri, sans-serif;&quot;&gt;Kullanıcıya ödemeyi onayla&lt;/span&gt;" style="html=1;verticalAlign=bottom;endArrow=block;curved=0;rounded=0;" edge="1" parent="1">
          <mxGeometry width="80" relative="1" as="geometry">
            <mxPoint x="212.32352941176464" y="271" as="sourcePoint" />
            <mxPoint x="69.32352941176464" y="271" as="targetPoint" />
          </mxGeometry>
        </mxCell>
        <mxCell id="bWho9EhT9x6A9DE35EJu-25" value="&lt;p style=&quot;font-size: 10px;&quot; class=&quot;MsoListParagraph&quot;&gt;Ürünü kullanıcıya teslim eder.&lt;/p&gt;" style="html=1;verticalAlign=bottom;endArrow=block;curved=0;rounded=0;" edge="1" parent="1">
          <mxGeometry width="80" relative="1" as="geometry">
            <mxPoint x="684.5" y="417" as="sourcePoint" />
            <mxPoint x="70" y="417" as="targetPoint" />
          </mxGeometry>
        </mxCell>
        <mxCell id="bWho9EhT9x6A9DE35EJu-29" value="&lt;span style=&quot;text-align: center;&quot;&gt;odemeyi isle&lt;/span&gt;" style="html=1;align=left;spacingLeft=2;endArrow=block;rounded=0;edgeStyle=orthogonalEdgeStyle;curved=0;rounded=0;" edge="1" parent="1">
          <mxGeometry relative="1" as="geometry">
            <mxPoint x="560" y="312" as="sourcePoint" />
            <Array as="points">
              <mxPoint x="590" y="342" />
            </Array>
            <mxPoint x="565" y="342" as="targetPoint" />
          </mxGeometry>
        </mxCell>
        <mxCell id="bWho9EhT9x6A9DE35EJu-31" value="&lt;span style=&quot;font-size:11.0pt;line-height:107%;&lt;br/&gt;font-family:&amp;quot;Calibri&amp;quot;,sans-serif;mso-ascii-theme-font:minor-latin;mso-fareast-font-family:&lt;br/&gt;Calibri;mso-fareast-theme-font:minor-latin;mso-hansi-theme-font:minor-latin;&lt;br/&gt;mso-bidi-font-family:Arial;mso-bidi-theme-font:minor-bidi;mso-ansi-language:&lt;br/&gt;TR;mso-fareast-language:EN-US;mso-bidi-language:AR-SA&quot;&gt;&amp;nbsp;Envanteri güncelle&lt;span style=&quot;white-space: pre;&quot;&gt;&#x9;&lt;/span&gt;&lt;/span&gt;" style="html=1;verticalAlign=bottom;endArrow=block;curved=0;rounded=0;" edge="1" parent="1">
          <mxGeometry width="80" relative="1" as="geometry">
            <mxPoint x="212.32352941176464" y="375" as="sourcePoint" />
            <mxPoint x="432" y="375" as="targetPoint" />
          </mxGeometry>
        </mxCell>
        <mxCell id="bWho9EhT9x6A9DE35EJu-32" value="&lt;span style=&quot;font-size: 12px; line-height: 107%; font-family: Calibri, sans-serif;&quot;&gt;ödemeyi onayla&lt;/span&gt;" style="html=1;verticalAlign=bottom;endArrow=block;curved=0;rounded=0;" edge="1" parent="1">
          <mxGeometry width="80" relative="1" as="geometry">
            <mxPoint x="69.32352941176464" y="295" as="sourcePoint" />
            <mxPoint x="208" y="295" as="targetPoint" />
          </mxGeometry>
        </mxCell>
        <mxCell id="bWho9EhT9x6A9DE35EJu-34" value="Odemeyi basarli" style="html=1;verticalAlign=bottom;endArrow=open;dashed=1;endSize=8;edgeStyle=elbowEdgeStyle;elbow=vertical;curved=0;rounded=0;" edge="1" parent="1" source="bWho9EhT9x6A9DE35EJu-13">
          <mxGeometry relative="1" as="geometry">
            <mxPoint x="220" y="350" as="targetPoint" />
            <Array as="points" />
            <mxPoint x="442" y="344" as="sourcePoint" />
          </mxGeometry>
        </mxCell>
        <mxCell id="bWho9EhT9x6A9DE35EJu-35" value="Odemeyi onaylandi" style="html=1;verticalAlign=bottom;endArrow=open;dashed=1;endSize=8;edgeStyle=elbowEdgeStyle;elbow=vertical;curved=0;rounded=0;" edge="1" parent="1">
          <mxGeometry relative="1" as="geometry">
            <mxPoint x="555" y="307" as="targetPoint" />
            <Array as="points">
              <mxPoint x="220" y="307" />
            </Array>
            <mxPoint x="290" y="307" as="sourcePoint" />
          </mxGeometry>
        </mxCell>
        <mxCell id="bWho9EhT9x6A9DE35EJu-36" value="Odemeyi basarli" style="html=1;verticalAlign=bottom;endArrow=open;dashed=1;endSize=8;edgeStyle=elbowEdgeStyle;elbow=vertical;curved=0;rounded=0;exitX=1;exitY=1;exitDx=0;exitDy=-5;exitPerimeter=0;" edge="1" parent="1" source="bWho9EhT9x6A9DE35EJu-19" target="bWho9EhT9x6A9DE35EJu-15">
          <mxGeometry relative="1" as="geometry">
            <mxPoint x="360" y="378.88" as="targetPoint" />
            <Array as="points" />
            <mxPoint x="700" y="379.88" as="sourcePoint" />
          </mxGeometry>
        </mxCell>
      </root>
    </mxGraphModel>
  </diagram>
</mxfile>
